<?xml version="1.0" standalone="no"?><!DOCTYPE svg PUBLIC "-//W3C//DTD SVG 1.1//EN" "http://www.w3.org/Graphics/SVG/1.1/DTD/svg11.dtd"><svg t="1765360164376" class="icon" viewBox="0 0 1024 1024" version="1.1" xmlns="http://www.w3.org/2000/svg" p-id="1199" xmlns:xlink="http://www.w3.org/1999/xlink" width="200" height="200"><path d="M512 512m-366 0a366 366 0 1 0 732 0 366 366 0 1 0-732 0Z" fill="#FFD699" p-id="1200"></path><path d="M553.47 849.1c-197.07 0-356.83-159.76-356.83-356.83 0-106.62 46.77-202.32 120.9-267.7-93.44 62.15-155.02 168.39-155.02 289.02 0 191.57 155.3 346.88 346.88 346.88 37.56 0 73.72-5.97 107.6-17.01-20.62 3.7-41.84 5.64-63.53 5.64z" fill="#FFB966" p-id="1201"></path><path d="M512 898c-52.1 0-102.65-10.21-150.25-30.34-45.97-19.44-87.25-47.27-122.69-82.71-35.44-35.44-63.27-76.72-82.71-122.69-20.13-47.6-30.34-98.15-30.34-150.25s10.21-102.65 30.34-150.25c19.44-45.97 47.27-87.25 82.71-122.69 35.44-35.44 76.72-63.27 122.69-82.71 47.6-20.13 98.15-30.34 150.25-30.34s102.65 10.21 150.25 30.34c45.97 19.44 87.25 47.27 122.69 82.71 35.44 35.44 63.27 76.72 82.71 122.69 20.13 47.6 30.34 98.15 30.34 150.25s-10.21 102.65-30.34 150.25c-19.44 45.97-47.27 87.25-82.71 122.69-35.44 35.44-76.72 63.27-122.69 82.71C614.65 887.79 564.1 898 512 898z m0-732c-92.42 0-179.31 35.99-244.66 101.34S166 419.58 166 512s35.99 179.31 101.34 244.66S419.58 858 512 858s179.31-35.99 244.66-101.34S858 604.42 858 512s-35.99-179.31-101.34-244.66S604.42 166 512 166z" fill="#281305" p-id="1202"></path><path d="M363.28 427a28.72 44 0 1 0 57.44 0 28.72 44 0 1 0-57.44 0Z" fill="#281305" p-id="1203"></path><path d="M602.28 405a28.72 44 0 1 0 57.44 0 28.72 44 0 1 0-57.44 0Z" fill="#281305" p-id="1204"></path><path d="M422.38 550.99c-27.38 4.34-39.63 37.11-21.51 58.08 34.35 39.76 83.2 61.41 133.21 53.48 50.01-7.92 89.78-43.6 110.16-92.03 10.75-25.55-11.03-52.93-38.41-48.59l-183.45 29.05z" fill="#281305" p-id="1205"></path><path d="M534.6 662.75c25.5-4.04 48.32-15.3 67.28-31.78-18.37-21.27-46.97-32.86-76.77-28.14-29.8 4.72-53.43 24.58-64.32 50.49 23.13 9.81 48.31 13.47 73.81 9.44z" fill="#FF5A62" p-id="1206"></path></svg>