<?xml version="1.0" encoding="UTF-8"?>
<svg xmlns="http://www.w3.org/2000/svg" xmlns:xlink="http://www.w3.org/1999/xlink" width="230px" height="230px" viewBox="0 0 230 229" version="1.1">
<g id="surface1">
<path style=" stroke:none;fill-rule:nonzero;fill:rgb(100%,83.92157%,60.000002%);fill-opacity:1;" d="M 32.792969 114.5 C 32.792969 159.703125 69.597656 196.351562 115 196.351562 C 160.402344 196.351562 197.207031 159.703125 197.207031 114.5 C 197.207031 69.296875 160.402344 32.648438 115 32.648438 C 69.597656 32.648438 32.792969 69.296875 32.792969 114.5 Z M 32.792969 114.5 "/>
<path style=" stroke:none;fill-rule:nonzero;fill:rgb(100%,72.549021%,40.000001%);fill-opacity:1;" d="M 124.316406 189.886719 C 80.050781 189.886719 44.167969 154.160156 44.167969 110.085938 C 44.167969 86.242188 54.671875 64.84375 71.324219 50.222656 C 50.335938 64.121094 36.503906 87.878906 36.503906 114.855469 C 36.503906 157.695312 71.386719 192.429688 114.414062 192.429688 C 122.851562 192.429688 130.972656 191.09375 138.585938 188.625 C 133.953125 189.453125 129.1875 189.886719 124.316406 189.886719 Z M 124.316406 189.886719 "/>
<path style=" stroke:none;fill-rule:nonzero;fill:rgb(15.686275%,7.450981%,1.960784%);fill-opacity:1;" d="M 115 200.820312 C 103.296875 200.820312 91.945312 198.539062 81.253906 194.039062 C 70.925781 189.691406 61.65625 183.464844 53.695312 175.539062 C 45.734375 167.613281 39.484375 158.382812 35.117188 148.101562 C 30.597656 137.457031 28.304688 126.152344 28.304688 114.503906 C 28.304688 102.851562 30.597656 91.546875 35.117188 80.902344 C 39.484375 70.621094 45.734375 61.390625 53.695312 53.464844 C 61.65625 45.539062 70.925781 39.316406 81.253906 34.96875 C 91.945312 30.464844 103.296875 28.183594 115 28.183594 C 126.703125 28.183594 138.054688 30.464844 148.746094 34.96875 C 159.074219 39.316406 168.34375 45.539062 176.304688 53.464844 C 184.265625 61.390625 190.515625 70.621094 194.882812 80.902344 C 199.402344 91.546875 201.695312 102.851562 201.695312 114.503906 C 201.695312 126.152344 199.402344 137.457031 194.882812 148.101562 C 190.515625 158.382812 184.265625 167.613281 176.304688 175.539062 C 168.34375 183.464844 159.074219 189.691406 148.746094 194.039062 C 138.054688 198.539062 126.703125 200.820312 115 200.820312 Z M 115 37.125 C 94.242188 37.125 74.726562 45.171875 60.046875 59.785156 C 45.367188 74.402344 37.285156 93.832031 37.285156 114.5 C 37.285156 135.167969 45.367188 154.597656 60.046875 169.214844 C 74.726562 183.828125 94.242188 191.875 115 191.875 C 135.757812 191.875 155.273438 183.828125 169.953125 169.214844 C 184.632812 154.597656 192.714844 135.167969 192.714844 114.5 C 192.714844 93.832031 184.632812 74.402344 169.953125 59.785156 C 155.273438 45.171875 135.757812 37.125 115 37.125 Z M 115 37.125 "/>
<path style=" stroke:none;fill-rule:nonzero;fill:rgb(15.686275%,7.450981%,1.960784%);fill-opacity:1;" d="M 81.597656 95.492188 C 81.597656 100.925781 84.484375 105.332031 88.046875 105.332031 C 91.609375 105.332031 94.496094 100.925781 94.496094 95.492188 C 94.496094 90.058594 91.609375 85.652344 88.046875 85.652344 C 84.484375 85.652344 81.597656 90.058594 81.597656 95.492188 Z M 81.597656 95.492188 "/>
<path style=" stroke:none;fill-rule:nonzero;fill:rgb(15.686275%,7.450981%,1.960784%);fill-opacity:1;" d="M 135.277344 90.570312 C 135.277344 96.003906 138.164062 100.410156 141.730469 100.410156 C 145.292969 100.410156 148.179688 96.003906 148.179688 90.570312 C 148.179688 85.136719 145.292969 80.730469 141.726562 80.730469 C 138.164062 80.730469 135.277344 85.136719 135.277344 90.570312 Z M 135.277344 90.570312 "/>
<path style=" stroke:none;fill-rule:nonzero;fill:rgb(15.686275%,7.450981%,1.960784%);fill-opacity:1;" d="M 94.871094 123.21875 C 88.71875 124.191406 85.96875 131.519531 90.039062 136.207031 C 97.753906 145.101562 108.726562 149.941406 119.960938 148.167969 C 131.191406 146.398438 140.125 138.417969 144.703125 127.585938 C 147.117188 121.875 142.226562 115.75 136.074219 116.71875 Z M 94.871094 123.21875 "/>
<path style=" stroke:none;fill-rule:nonzero;fill:rgb(100%,35.294119%,38.431373%);fill-opacity:1;" d="M 120.074219 148.210938 C 125.804688 147.308594 130.929688 144.792969 135.1875 141.105469 C 131.0625 136.347656 124.636719 133.757812 117.945312 134.8125 C 111.25 135.867188 105.945312 140.308594 103.496094 146.105469 C 108.691406 148.296875 114.347656 149.117188 120.074219 148.214844 Z M 120.074219 148.210938 "/>
</g>
</svg>
